<svg width="252" height="282" viewBox="0 0 252 282" fill="none" xmlns="http://www.w3.org/2000/svg">
<path d="M103.476 264.781L165.756 158.326L228.036 264.781L103.476 264.781ZM88.1029 25.7715L155.538 141.015L88.1029 256.259L18.7967 141.015L88.1029 25.7715ZM165.787 123.705L103.438 17.2191L228.036 17.2191L165.756 123.705H165.787ZM175.906 141.015L250.841 12.882C253.246 8.76583 251.788 3.49866 247.58 1.14332C246.251 0.403943 244.739 0 243.219 0L88.2938 0C85.1626 0 82.2834 1.60839 80.7025 4.24575L1.20856 136.648C-0.402854 139.346 -0.402854 142.685 1.20856 145.352L80.7025 277.754C82.2834 280.392 85.1626 282 88.2938 282L243.188 282C248.053 282 251.979 278.158 251.979 273.387C251.979 271.87 251.566 270.414 250.81 269.118L175.845 140.985L175.906 141.015Z" fill="black"/>
</svg>
